<svg width="25" height="25" viewBox="0 0 25 25" fill="none" xmlns="http://www.w3.org/2000/svg">
<path d="M20.4995 16.4999C20.4995 16.8507 20.4009 17.1759 20.2428 17.462L15.191 11.8097L20.188 7.43765C20.3824 7.74614 20.4995 8.10851 20.4995 8.50009V16.4999ZM12.4995 12.836L19.4528 6.752C19.1675 6.59579 18.8462 6.5 18.4996 6.5H6.4995C6.15247 6.5 5.83106 6.59579 5.54688 6.752L12.4995 12.836ZM14.4381 12.4679L12.8286 13.8771C12.7344 13.9591 12.6172 14 12.4995 14C12.3818 14 12.2646 13.9591 12.1704 13.8771L10.5606 12.4678L5.44482 18.1924C5.75145 18.3848 6.11082 18.5 6.49947 18.5H18.4996C18.8881 18.5 19.2477 18.3848 19.5542 18.1924L14.4381 12.4679ZM4.81106 7.43762C4.61671 7.74611 4.49951 8.10847 4.49951 8.50009V16.5C4.49951 16.8507 4.59771 17.1759 4.75636 17.462L9.80762 11.8087L4.81106 7.43762Z" fill="#929AA2"/>
</svg>
